<svg xmlns="http://www.w3.org/2000/svg" width="562" height="162" fill="none"><path fill="#F80" fill-rule="evenodd" d="M144 72c0 29.833-18.144 55.429-44 66.353C86.634 144 82 147 78 155c-.39.779-.722 1.52-1.031 2.208C75.692 160.055 74.819 162 72 162c-2.818 0-3.692-1.945-4.969-4.792-.309-.688-.642-1.429-1.031-2.208-4-8-9-11-22-16.647C18.145 127.429 0 101.833 0 72 0 32.236 32.236 0 72 0c39.765 0 72 32.236 72 72Zm-32 0c0 22.091-17.909 40-40 40S32 94.091 32 72s17.909-40 40-40 40 17.909 40 40Z" clip-rule="evenodd"/><path fill="#000" d="M213.68 92.94c-4.74 0-9.06-.9-12.96-2.7-3.84-1.86-7.17-4.32-9.99-7.38-2.82-3.12-4.98-6.6-6.48-10.44A33.32 33.32 0 0 1 182 60.36c0-4.2.78-8.22 2.34-12.06 1.62-3.9 3.84-7.35 6.66-10.35 2.88-3.06 6.27-5.46 10.17-7.2 3.9-1.74 8.16-2.61 12.78-2.61 4.74 0 9.03.93 12.87 2.79 3.9 1.8 7.23 4.26 9.99 7.38 2.82 3.12 4.98 6.63 6.48 10.53 1.5 3.84 2.25 7.77 2.25 11.79 0 4.2-.81 8.25-2.43 12.15a33.243 33.243 0 0 1-6.66 10.35c-2.82 3-6.18 5.4-10.08 7.2-3.84 1.74-8.07 2.61-12.69 2.61Zm-16.65-32.4c0 3.3.63 6.42 1.89 9.36a17.31 17.31 0 0 0 5.67 7.11c2.52 1.86 5.58 2.79 9.18 2.79 3.72 0 6.81-.96 9.27-2.88 2.52-1.92 4.38-4.35 5.58-7.29 1.26-3 1.89-6.09 1.89-9.27 0-3.3-.66-6.39-1.98-9.27-1.26-2.94-3.15-5.31-5.67-7.11-2.46-1.8-5.49-2.7-9.09-2.7-3.72 0-6.84.96-9.36 2.88-2.46 1.86-4.32 4.26-5.58 7.2-1.2 2.94-1.8 6-1.8 9.18ZM273.337 93.3c-4.08 0-8.04-.66-11.88-1.98-3.78-1.38-6.99-3.33-9.63-5.85l4.95-9.09c5.82 4.26 11.19 6.39 16.11 6.39 1.86 0 3.3-.3 4.32-.9 1.02-.6 1.53-1.53 1.53-2.79 0-1.32-.69-2.25-2.07-2.79-1.38-.6-3.42-1.29-6.12-2.07-3.6-1.2-6.6-2.37-9-3.51-2.4-1.14-4.2-2.52-5.4-4.14-1.2-1.62-1.8-3.78-1.8-6.48 0-4.74 1.77-8.55 5.31-11.43 3.54-2.94 8.34-4.41 14.4-4.41 3.24 0 6.39.51 9.45 1.53 3.12 1.02 6.03 2.73 8.73 5.13l-5.58 9c-2.7-1.86-5.1-3.21-7.2-4.05-2.1-.84-4.14-1.26-6.12-1.26-1.56 0-2.88.3-3.96.9-1.08.54-1.62 1.5-1.62 2.88 0 1.32.6 2.31 1.8 2.97 1.2.6 3.06 1.26 5.58 1.98 3.84 1.14 7.05 2.31 9.63 3.51 2.64 1.14 4.59 2.58 5.85 4.32 1.32 1.68 1.98 3.93 1.98 6.75 0 4.8-1.74 8.58-5.22 11.34-3.48 2.7-8.16 4.05-14.04 4.05ZM377.384 92.4h-14.4V65.85c0-3.06-.57-5.31-1.71-6.75-1.14-1.44-2.61-2.16-4.41-2.16-1.92 0-3.81.78-5.67 2.34-1.86 1.56-3.18 3.57-3.96 6.03V92.4h-14.4V65.85c0-3.12-.57-5.37-1.71-6.75-1.14-1.44-2.61-2.16-4.41-2.16-1.92 0-3.81.78-5.67 2.34-1.8 1.56-3.12 3.57-3.96 6.03V92.4h-14.4V45.15h12.96v7.92c1.74-2.82 4.11-4.98 7.11-6.48 3-1.56 6.45-2.34 10.35-2.34 3.9 0 6.9.93 9 2.79 2.1 1.8 3.45 3.93 4.05 6.39 1.8-2.88 4.17-5.13 7.11-6.75 3-1.62 6.36-2.43 10.08-2.43 3 0 5.4.57 7.2 1.71 1.86 1.08 3.27 2.52 4.23 4.32 1.02 1.8 1.71 3.75 2.07 5.85.36 2.04.54 4.05.54 6.03V92.4ZM406.775 28.5h15.93l21.96 63.9h-15.12l-4.95-14.31h-19.89l-4.86 14.31h-15.12l22.05-63.9Zm15.39 39.42-7.47-24.57-7.65 24.57h15.12ZM498.028 92.4h-14.4V65.85c0-3.12-.6-5.37-1.8-6.75-1.14-1.44-2.67-2.16-4.59-2.16-1.98 0-3.99.78-6.03 2.34-2.04 1.56-3.48 3.57-4.32 6.03V92.4h-14.4V45.15h12.96v7.92c1.74-2.76 4.2-4.92 7.38-6.48 3.18-1.56 6.84-2.34 10.98-2.34 3.06 0 5.52.57 7.38 1.71 1.92 1.08 3.36 2.52 4.32 4.32 1.02 1.74 1.68 3.66 1.98 5.76.36 2.1.54 4.14.54 6.12V92.4ZM507.595 68.73c0-4.56.87-8.67 2.61-12.33 1.8-3.72 4.26-6.66 7.38-8.82 3.18-2.22 6.81-3.33 10.89-3.33 3.3 0 6.27.81 8.91 2.43 2.7 1.56 4.77 3.63 6.21 6.21V26.7h14.4v49.68c0 1.44.21 2.46.63 3.06.48.6 1.29.93 2.43.99V92.4c-2.52.48-4.56.72-6.12.72-2.46 0-4.47-.54-6.03-1.62-1.56-1.08-2.49-2.58-2.79-4.5l-.27-2.43c-1.68 2.94-3.96 5.13-6.84 6.57-2.88 1.44-5.91 2.16-9.09 2.16-4.32 0-8.16-1.05-11.52-3.15-3.36-2.16-6-5.1-7.92-8.82-1.92-3.72-2.88-7.92-2.88-12.6Zm36.09 5.85v-9.9c-.9-2.4-2.37-4.35-4.41-5.85-1.98-1.56-4.05-2.34-6.21-2.34-2.04 0-3.87.57-5.49 1.71-1.62 1.14-2.88 2.67-3.78 4.59-.9 1.92-1.35 3.99-1.35 6.21 0 3.48 1.05 6.39 3.15 8.73 2.16 2.28 4.89 3.42 8.19 3.42 1.98 0 3.87-.57 5.67-1.71 1.86-1.2 3.27-2.82 4.23-4.86Z"/><g fill="#000" opacity=".5"><path d="M201.951 126.508v-11.184l-4.368 8.328h-1.848l-4.368-8.328v11.184h-3.312v-17.04h3.552l5.04 9.696 5.088-9.696h3.528v17.04h-3.312ZM221.853 109.468h3.36l6.264 17.04h-3.408l-1.584-4.248h-5.952l-1.56 4.248h-3.408l6.288-17.04Zm4.032 10.464-2.352-7.032-2.448 7.032h4.8ZM241.746 126.508v-17.04h7.224c.784 0 1.504.16 2.16.48.672.32 1.248.752 1.728 1.296s.856 1.152 1.128 1.824c.272.672.408 1.36.408 2.064 0 .96-.224 1.872-.672 2.736a5.67 5.67 0 0 1-1.872 2.112c-.784.544-1.704.816-2.76.816h-4.032v5.712h-3.312Zm3.312-8.616h3.84c.608 0 1.112-.248 1.512-.744.416-.512.624-1.184.624-2.016 0-.88-.232-1.56-.696-2.04-.464-.48-.992-.72-1.584-.72h-3.696v5.52ZM275.251 113.932c-.144-.16-.448-.368-.912-.624a8.276 8.276 0 0 0-1.68-.72 5.987 5.987 0 0 0-1.992-.336c-1.808 0-2.712.64-2.712 1.92 0 .464.144.832.432 1.104.288.272.72.504 1.296.696.576.192 1.296.4 2.16.624 1.12.288 2.088.624 2.904 1.008.832.384 1.464.896 1.896 1.536.448.624.672 1.456.672 2.496 0 1.216-.296 2.2-.888 2.952-.576.736-1.344 1.272-2.304 1.608-.96.336-2 .504-3.12.504-1.28 0-2.552-.192-3.816-.576-1.248-.4-2.36-.944-3.336-1.632l1.464-2.856c.144.144.4.336.768.576.368.224.816.456 1.344.696a12.15 12.15 0 0 0 1.728.576c.624.16 1.256.24 1.896.24 1.824 0 2.736-.584 2.736-1.752 0-.496-.184-.896-.552-1.2-.368-.304-.888-.56-1.56-.768a102.05 102.05 0 0 0-2.304-.696c-1.088-.304-1.992-.64-2.712-1.008-.704-.384-1.232-.856-1.584-1.416-.352-.576-.528-1.304-.528-2.184 0-1.168.272-2.144.816-2.928.56-.8 1.312-1.4 2.256-1.8.944-.416 1.992-.624 3.144-.624 1.184 0 2.288.192 3.312.576 1.024.384 1.904.824 2.64 1.32l-1.464 2.688ZM313.472 126.508l-1.344-1.416c-1.424 1.104-3.024 1.656-4.8 1.656-1.184 0-2.208-.232-3.072-.696-.848-.48-1.512-1.104-1.992-1.872a4.74 4.74 0 0 1-.696-2.496c0-1.056.296-1.96.888-2.712a10.583 10.583 0 0 1 2.04-2.016c-.656-.752-1.12-1.392-1.392-1.92a3.667 3.667 0 0 1-.408-1.704c0-.816.2-1.528.6-2.136a4.094 4.094 0 0 1 1.68-1.44c.704-.336 1.504-.504 2.4-.504.784 0 1.52.144 2.208.432a3.875 3.875 0 0 1 1.68 1.248c.432.56.648 1.256.648 2.088 0 .912-.272 1.72-.816 2.424-.544.704-1.24 1.352-2.088 1.944l3.264 3.456c.24-.528.424-1.096.552-1.704a8.527 8.527 0 0 0 .216-1.968h2.616c0 1.12-.136 2.152-.408 3.096a9.598 9.598 0 0 1-1.08 2.544l3.528 3.696h-4.224Zm-7.848-13.272c0 .288.096.568.288.84.208.256.584.672 1.128 1.248.608-.4 1.08-.768 1.416-1.104.336-.336.504-.72.504-1.152 0-.432-.152-.776-.456-1.032-.288-.272-.664-.408-1.128-.408-.512 0-.936.16-1.272.48-.32.304-.48.68-.48 1.128Zm-.96 8.472c0 .688.28 1.28.84 1.776.56.496 1.272.744 2.136.744.976 0 1.896-.328 2.76-.984l-3.936-4.176c-.544.4-.984.816-1.32 1.248-.32.416-.48.88-.48 1.392ZM345.347 115.564v10.944h-3.312v-17.04h2.64l8.808 11.232v-11.208h3.312v17.016h-2.76l-8.688-10.944ZM373.372 109.468h3.36l6.264 17.04h-3.408l-1.584-4.248h-5.952l-1.56 4.248h-3.408l6.288-17.04Zm4.032 10.464-2.352-7.032-2.448 7.032h4.8ZM393.634 109.468l4.608 13.104 4.56-13.104h3.48l-6.456 17.04h-3.192l-6.48-17.04h3.48ZM416.501 126.508v-17.04h3.312v17.04h-3.312ZM438.848 126.628a7.446 7.446 0 0 1-3.144-.672 8.444 8.444 0 0 1-2.592-1.848 8.87 8.87 0 0 1-1.728-2.784c-.416-1.056-.624-2.2-.624-3.432 0-1.168.208-2.264.624-3.288.416-1.04 1-1.952 1.752-2.736a8.28 8.28 0 0 1 2.64-1.848c1.008-.448 2.104-.672 3.288-.672 1.584 0 2.952.344 4.104 1.032 1.152.672 2.016 1.568 2.592 2.688l-2.472 1.824a4.596 4.596 0 0 0-1.824-1.92 4.783 4.783 0 0 0-2.52-.696c-.96 0-1.808.264-2.544.792-.72.528-1.288 1.224-1.704 2.088-.4.864-.6 1.808-.6 2.832 0 1.072.216 2.04.648 2.904.432.864 1.024 1.552 1.776 2.064.768.496 1.64.744 2.616.744 1.648 0 3.136-.776 4.464-2.328v-1.2h-3.432v-2.424h6.168v8.76H443.6v-1.92c-1.376 1.36-2.96 2.04-4.752 2.04ZM462.191 109.468h3.36l6.264 17.04h-3.408l-1.584-4.248h-5.952l-1.56 4.248h-3.408l6.288-17.04Zm4.032 10.464-2.352-7.032-2.448 7.032h4.8ZM493.234 112.372h-5.448v14.136h-3.288v-14.136h-5.448v-2.904h14.184v2.904ZM503.749 126.508v-17.04h3.312v17.04h-3.312ZM526.288 126.628c-1.248 0-2.384-.24-3.408-.72a8.279 8.279 0 0 1-2.616-1.944 9.514 9.514 0 0 1-1.68-2.784c-.4-1.04-.6-2.104-.6-3.192 0-1.136.208-2.216.624-3.24.416-1.04 1-1.96 1.752-2.76a8.242 8.242 0 0 1 2.64-1.92c1.024-.48 2.144-.72 3.36-.72 1.232 0 2.352.248 3.36.744a8.066 8.066 0 0 1 2.616 1.992 8.806 8.806 0 0 1 1.68 2.808 8.646 8.646 0 0 1-.024 6.384 9.09 9.09 0 0 1-1.752 2.76 8.069 8.069 0 0 1-2.64 1.896c-1.008.464-2.112.696-3.312.696Zm-4.944-8.64c0 .992.192 1.92.576 2.784.4.864.968 1.568 1.704 2.112.752.544 1.648.816 2.688.816 1.072 0 1.976-.28 2.712-.84a5.35 5.35 0 0 0 1.68-2.16c.384-.88.576-1.784.576-2.712 0-.992-.2-1.92-.6-2.784a5.135 5.135 0 0 0-1.728-2.088c-.736-.544-1.616-.816-2.64-.816-1.072 0-1.976.28-2.712.84a5.35 5.35 0 0 0-1.68 2.16 6.55 6.55 0 0 0-.576 2.688ZM548.869 115.564v10.944h-3.312v-17.04h2.64l8.808 11.232v-11.208h3.312v17.016h-2.76l-8.688-10.944Z"/></g></svg>